HIERARCHY
ROOT Hips
{
	OFFSET 32.510799 10.238284 99.521698
	CHANNELS 6 Xposition Yposition Zposition Xrotation Yrotation Zrotation
	JOINT spine
	{
		OFFSET 0.000000 -0.507026 8.817039
		CHANNELS 3 Xrotation Yrotation Zrotation
		JOINT spine1
		{
			OFFSET 0.000000 -0.000001 10.776604
			CHANNELS 3 Xrotation Yrotation Zrotation
			JOINT spine2
			{
				OFFSET 0.000000 -0.000002 10.325897
				CHANNELS 3 Xrotation Yrotation Zrotation
				JOINT Neck
				{
					OFFSET 0.000000 -1.263955 26.511002
					CHANNELS 3 Xrotation Yrotation Zrotation
					JOINT Head
					{
						OFFSET 0.000000 -0.000001 8.009659
						CHANNELS 3 Xrotation Yrotation Zrotation
						End Site
						{
							OFFSET 0.000000 6.393857 19.387894
						}
					}
				}
				JOINT RightShoulder
				{
					OFFSET -4.347950 0.605420 11.151199
					CHANNELS 3 Xrotation Yrotation Zrotation
					JOINT RightArm
					{
						OFFSET 0.000000 -0.000003 14.625793
						CHANNELS 3 Xrotation Yrotation Zrotation
						JOINT RightArmRoll
						{
							OFFSET 0.000000 -0.000001 7.383392
							CHANNELS 3 Xrotation Yrotation Zrotation
							JOINT RightForeArm
							{
								OFFSET 0.000000 -0.000003 21.505203
								CHANNELS 3 Xrotation Yrotation Zrotation
								JOINT RightForeArmRoll
								{
									OFFSET 0.000000 -0.000002 8.285324
									CHANNELS 3 Xrotation Yrotation Zrotation
									JOINT RightHand
									{
										OFFSET 0.000000 -0.000003 16.626801
										CHANNELS 3 Xrotation Yrotation Zrotation
										End Site
										{
											OFFSET 0.000000 0.000000 0.100006
										}
									}
								}
							}
						}
					}
				}
				JOINT LeftShoulder
				{
					OFFSET 4.347950 0.605420 11.151199
					CHANNELS 3 Xrotation Yrotation Zrotation
					JOINT LeftArm
					{
						OFFSET 0.000000 -0.000003 14.625793
						CHANNELS 3 Xrotation Yrotation Zrotation
						JOINT LeftArmRoll
						{
							OFFSET 0.000000 -0.000001 7.383392
							CHANNELS 3 Xrotation Yrotation Zrotation
							JOINT LeftForeArm
							{
								OFFSET 0.000000 -0.000003 21.505203
								CHANNELS 3 Xrotation Yrotation Zrotation
								JOINT LeftForeArmRoll
								{
									OFFSET 0.000000 -0.000002 8.285324
									CHANNELS 3 Xrotation Yrotation Zrotation
									JOINT LeftHand
									{
										OFFSET 0.000000 -0.000003 16.626801
										CHANNELS 3 Xrotation Yrotation Zrotation
										End Site
										{
											OFFSET 0.000000 0.000000 0.100006
										}
									}
								}
							}
						}
					}
				}
			}
		}
	}
	JOINT RightUpLeg
	{
		OFFSET -7.815100 1.202170 -1.433090
		CHANNELS 3 Xrotation Yrotation Zrotation
		JOINT RightUpLegRoll
		{
			OFFSET 0.000000 -0.000003 19.495895
			CHANNELS 3 Xrotation Yrotation Zrotation
			JOINT RightLeg
			{
				OFFSET 0.000000 0.000004 -24.142700
				CHANNELS 3 Xrotation Yrotation Zrotation
				JOINT RightLegRoll
				{
					OFFSET 0.000000 -0.000004 24.221703
					CHANNELS 3 Xrotation Yrotation Zrotation
					JOINT RightFoot
					{
						OFFSET 0.000000 -0.000004 20.160500
						CHANNELS 3 Xrotation Yrotation Zrotation
						JOINT RightToeBase
						{
							OFFSET 0.000000 -0.000002 16.853195
							CHANNELS 3 Xrotation Yrotation Zrotation
							End Site
							{
								OFFSET 0.007143 0.940779 8.161865
							}
						}
					}
				}
			}
		}
	}
	JOINT LeftUpLeg
	{
		OFFSET 7.815102 1.202170 -1.433090
		CHANNELS 3 Xrotation Yrotation Zrotation
		JOINT LeftUpLegRoll
		{
			OFFSET 0.000000 -0.000003 19.496002
			CHANNELS 3 Xrotation Yrotation Zrotation
			JOINT LeftLeg
			{
				OFFSET 0.000000 -0.000004 24.142593
				CHANNELS 3 Xrotation Yrotation Zrotation
				JOINT LeftLegRoll
				{
					OFFSET 0.000000 -0.000004 24.445602
					CHANNELS 3 Xrotation Yrotation Zrotation
					JOINT LeftFoot
					{
						OFFSET 0.000000 -0.000004 19.936600
						CHANNELS 3 Xrotation Yrotation Zrotation
						JOINT LeftToeBase
						{
							OFFSET 0.000000 -0.000003 16.853195
							CHANNELS 3 Xrotation Yrotation Zrotation
							End Site
							{
								OFFSET -0.032013 0.940779 8.161865
							}
						}
					}
				}
			}
		}
	}
}
MOTION
Frames: 8
Frame Time: 0.041667
44.112701 -5.716876 104.639000 -2.617443 0.858379 7.370999 -1.924038 0.233375 0.144303 0.154150 0.463523 0.294141 1.799249 0.467017 0.288566 7.924339 -8.929549 -1.965726 8.605086 4.186164 -2.235420 -24.908006 -55.417758 -29.587615 29.276800 -68.346001 61.096172 0.000002 0.000004 0.000000 5.593211 -5.974776 -0.265723 -0.000000 0.000006 -3.006344 -5.000163 -7.999113 0.000132 -9.088094 55.492073 10.513301 -123.423909 102.860982 105.060734 -0.000000 0.000006 -0.000003 2.107383 8.875390 0.430577 0.000001 -0.000010 3.000001 -5.000206 7.998700 -0.000147 -10.144292 180.041355 2.124433 -179.999991 0.000005 -1.250999 144.911698 -3.089617 -2.381400 -0.000005 0.000000 0.464291 68.508676 6.758596 2.518061 25.096779 -7.356230 0.055064 -11.601456 -182.174696 0.912608 -0.000004 -0.000004 -1.192649 -35.119627 1.636248 1.653322 -0.000006 0.000002 -0.483115 69.996783 -6.794116 -2.314642 25.221003 7.355966 -0.049990 
44.087799 -5.703216 104.456001 -2.658447 0.844250 7.372148 -1.905696 0.232206 0.148501 0.190807 0.460894 0.302417 1.835910 0.464486 0.296870 7.968525 -8.828125 -1.974178 8.473833 4.101964 -2.231343 -24.991488 -55.687960 -29.678473 29.644899 -68.796220 61.395532 0.000001 0.000004 -0.000003 5.648862 -5.992918 -0.263557 0.000000 0.000005 -3.006334 -5.000159 -7.999115 0.000128 -9.033755 55.812771 10.474569 -122.512953 102.622527 104.510254 0.000001 0.000006 0.000001 2.053910 9.138254 0.417441 0.000003 -0.000009 2.999999 -5.000208 7.998705 -0.000150 -10.199595 179.931102 2.097446 -179.999991 0.000005 -1.249005 144.771460 -3.090842 -2.390550 -0.000004 0.000000 0.466142 68.523497 6.758584 2.517352 25.456955 -7.355615 0.000009 -11.660442 -182.021440 0.925986 -0.000005 -0.000005 -1.194630 -35.364015 1.662704 1.672191 -0.000007 0.000002 -0.487217 70.015019 -6.794502 -2.312098 25.456945 7.355615 -0.000002 
44.063099 -5.688198 104.219009 -2.694154 0.820198 7.371323 -1.890086 0.229677 0.151317 0.222032 0.455650 0.307911 1.867130 0.459309 0.302428 8.063386 -8.640118 -1.973881 8.297786 3.947215 -2.213586 -25.005695 -55.926535 -29.686410 30.012258 -69.283178 61.694134 0.000001 0.000004 0.000001 5.708712 -6.010959 -0.261163 -0.000001 0.000006 -3.006309 -5.000162 -7.999109 0.000132 -8.977037 56.211084 10.439255 -121.832243 102.422368 104.136431 -0.000001 0.000007 -0.000003 2.012396 9.368709 0.405350 0.000001 -0.000010 3.000002 -5.000209 7.998704 -0.000149 -10.254727 179.840602 2.070199 -179.999991 0.000005 -1.246996 144.656508 -3.088105 -2.398901 -0.000004 0.000000 0.466372 68.520991 6.754783 2.525385 25.931095 -7.356369 -0.081535 -11.714228 -181.857530 0.944604 -0.000004 -0.000004 -1.196009 -35.578951 1.691149 1.690885 -0.000006 0.000002 -0.489521 70.010730 -6.793016 -2.315393 25.763272 7.356005 0.073665 
44.058601 -5.679210 104.031982 -2.725795 0.785314 7.369007 -1.876645 0.225938 0.152937 0.248924 0.448053 0.310999 1.894019 0.451749 0.305608 8.204475 -8.368359 -1.967316 8.080446 3.724340 -2.184839 -24.951878 -56.135887 -29.613176 30.376440 -69.803680 61.990011 -0.000000 0.000006 -0.000003 5.772496 -6.028920 -0.258536 0.000000 0.000007 -3.006304 -5.000162 -7.999114 0.000130 -8.916444 56.688661 10.405573 -121.403771 102.257453 103.987158 -0.000001 0.000006 0.000001 1.980995 9.589610 0.392673 0.000003 -0.000010 3.000001 -5.000206 7.998705 -0.000149 -10.306071 179.770757 2.042665 -179.999991 0.000005 -1.244005 144.580352 -3.080302 -2.403534 -0.000004 0.000000 0.463954 68.487202 6.744482 2.548484 26.523585 -7.360146 -0.196821 -11.760430 -181.682950 0.968078 -0.000004 -0.000004 -1.196540 -35.756368 1.723777 1.710198 -0.000005 0.000002 -0.488993 69.969838 -6.788121 -2.328727 26.140114 7.357978 0.177341 
44.028999 -5.661098 103.785995 -2.753742 0.741154 7.365338 -1.865126 0.221137 0.153507 0.271972 0.438387 0.311976 1.917067 0.442095 0.306697 8.386199 -8.023698 -1.956407 7.826805 3.442063 -2.147670 -24.837215 -56.319076 -29.467642 30.743313 -70.353722 62.288600 0.000000 0.000003 0.000002 5.839671 -6.046650 -0.255700 -0.000000 0.000004 -3.006280 -5.000162 -7.999115 0.000128 -8.852317 57.234222 10.372680 -121.200109 102.122120 104.034955 -0.000000 0.000006 -0.000003 1.958952 9.799050 0.379564 0.000003 -0.000009 3.000003 -5.000205 7.998701 -0.000147 -10.354714 179.718656 2.015296 -179.999991 0.000005 -1.239005 144.534849 -3.069584 -2.407604 -0.000004 0.000000 0.459480 68.429364 6.729182 2.583193 27.218828 -7.368838 -0.339782 -11.800383 -181.499655 0.995557 -0.000005 -0.000004 -1.196420 -35.902760 1.759770 1.729913 -0.000005 0.000002 -0.486245 69.900217 -6.780733 -2.349571 26.578587 7.362552 0.305747 
44.016899 -5.641328 103.594002 -2.778371 0.689270 7.360488 -1.855294 0.215417 0.153168 0.291654 0.426935 0.311124 1.936743 0.430634 0.305984 8.602996 -7.616960 -1.943141 7.541832 3.109103 -2.104602 -24.669185 -56.478889 -29.258939 31.119971 -70.929254 62.596505 0.000000 0.000003 0.000003 5.909735 -6.063998 -0.252687 0.000000 0.000008 -3.006270 -5.000160 -7.999109 0.000130 -8.785046 57.836478 10.339808 -121.189863 102.011758 104.248863 -0.000000 0.000009 0.000002 1.945529 9.995149 0.366177 0.000003 -0.000007 3.000001 -5.000209 7.998703 -0.000149 -10.401549 179.683303 1.988194 -179.999991 0.000005 -1.235002 144.512336 -3.055683 -2.409537 -0.000001 0.000000 0.453540 68.354955 6.710215 2.625887 28.000977 -7.384248 -0.504307 -11.835623 -181.309571 1.026194 -0.000003 -0.000004 -1.195810 -36.024914 1.798270 1.749796 -0.000006 0.000002 -0.481891 69.810155 -6.771462 -2.375823 27.070191 7.370639 0.453529 
43.987999 -5.628638 103.393997 -2.800079 0.631215 7.354602 -1.846906 0.208926 0.152059 0.308454 0.413985 0.308731 1.953542 0.417656 0.303748 8.849314 -7.159007 -1.929425 7.230484 2.734236 -2.058077 -24.455620 -56.618375 -28.996670 31.513578 -71.526226 62.920666 0.000000 0.000006 0.000000 5.982148 -6.080796 -0.249529 0.000002 0.000007 -3.006260 -5.000162 -7.999112 0.000130 -8.715016 58.483980 10.306239 -121.335360 101.922084 104.591595 0.000000 0.000004 -0.000003 1.939979 10.175983 0.352708 0.000001 -0.000007 3.000001 -5.000208 7.998706 -0.000151 -10.447873 179.660722 1.962053 -179.999991 0.000005 -1.230003 144.504810 -3.039905 -2.410913 -0.000003 0.000000 0.446724 68.271094 6.689176 2.673033 28.854360 -7.407816 -0.684203 -11.867663 -181.114665 1.059135 -0.000004 -0.000004 -1.194910 -36.129126 1.838445 1.769615 -0.000005 0.000002 -0.476545 69.707763 -6.761086 -2.405106 27.606214 7.383024 0.615352 
43.991901 -5.619445 103.177002 -2.819240 0.568541 7.347857 -1.839713 0.201812 0.150330 0.322855 0.399821 0.305087 1.967939 0.403449 0.300276 9.119642 -6.660698 -1.916989 6.897649 2.326240 -2.010360 -24.204884 -56.740485 -28.690899 31.932275 -72.140567 63.268889 -0.000000 0.000003 -0.000001 6.056395 -6.096878 -0.246256 0.000002 0.000008 -3.006242 -5.000165 -7.999115 0.000126 -8.642681 59.165598 10.271438 -121.598609 101.849138 105.025305 0.000000 0.000007 -0.000003 1.941543 10.339785 0.339358 0.000002 -0.000009 3.000000 -5.000209 7.998704 -0.000149 -10.494587 179.648974 1.937164 -179.999991 0.000005 -1.225003 144.504618 -3.021152 -2.411594 -0.000003 0.000001 0.439622 68.185027 6.667472 2.721351 29.763304 -7.440485 -0.873232 -11.897930 -180.916890 1.093503 -0.000004 -0.000004 -1.193899 -36.222078 1.879444 1.789160 -0.000005 0.000002 -0.470821 69.601035 -6.750433 -2.435188 28.178145 7.400208 0.785845 
